# xmcd CD database file
#
# Track frame offsets:
#	150
#	18085
#	30135
#	39431
#	49151
#	62370
#	74737
#	86812
#	103192
#	118882
#	139237
#	147707
#
# Disc length: 2373 seconds
#
# Revision: 0
# Processed by: cddbd v1.5.1PL0 Copyright (c) Steve Scherf et al.
# Submitted via: CDex 1.51
#
DISCID=ac09430c
DTITLE=Abby Jenne Band - Random Road
DYEAR=1900
DGENRE=Blues
TTITLE0=Fear is the Enemy
TTITLE1=Do Something
TTITLE2=Brave New Women
TTITLE3=Miller
TTITLE4=The Peasant, Tense
TTITLE5=Pigeon
TTITLE6=Redneck Love
TTITLE7=Rocks in My Head
TTITLE8=Tiny Wars
TTITLE9=Johnson, VT
TTITLE10=Barre, VT
TTITLE11=War Pigs
EXTD=
EXTT0=
EXTT1=
EXTT2=
EXTT3=
EXTT4=
EXTT5=
EXTT6=
EXTT7=
EXTT8=
EXTT9=
EXTT10=
EXTT11=
PLAYORDER=
